<?xml version="1.0" encoding="UTF-8"?>
<!-- Created with Inkscape (http://www.inkscape.org/) -->
<svg width="24" height="24" version="1.1" viewBox="0 0 6.35 6.35" xmlns="http://www.w3.org/2000/svg">
 <g transform="matrix(1.0133 0 0 -1.0132 -.011086 6.4305)" fill="none" aria-label="X">
  <path d="m0.82982 6.0854h0.84482l1.4024-2.3317 1.4531 2.3317h0.88706l-1.8079-2.8724 1.7488-2.8724h-0.84482l-1.3348 2.2303-1.4024-2.2303h-0.88706l1.7488 2.771z" fill="#000" style="paint-order:stroke markers fill"/>
 </g>
 <path d="m3.176 5.8208c-1.4565 0-2.6469-1.1903-2.6469-2.6469 0-1.4565 1.1903-2.6443 2.6469-2.6443 1.4565 0 2.6443 1.1877 2.6443 2.6443 1e-7 0.71284-0.2849 1.3618-0.74621 1.8386l-0.42891-0.70693c0.23992-0.31252 0.38241-0.70484 0.38241-1.1317 0-1.0276-0.82399-1.8516-1.8516-1.8516-1.0276-1e-7 -1.8536 0.82399-1.8536 1.8516 0 1.0276 0.82606 1.8536 1.8536 1.8536 0.14394 0 0.28382-0.015811 0.41806-0.046509v0.00155l0.42065 0.69918 0.0031 0.00103c-0.26467 0.089462-0.54765 0.13798-0.84181 0.13798z" color="#000000" fill="#80cc28" style="-inkscape-stroke:none"/>
 <g transform="matrix(1.0133 0 0 -1.0132 -.011086 6.4305)" fill="none" aria-label="X">
  <path d="m3.6093 3.213 1.7488-2.8724h-0.84482l-1.3348 2.2303z" fill="#000" style="paint-order:stroke markers fill"/>
 </g>
</svg>
